<svg width="1024" height="753" viewBox="0 0 1024 753" fill="none" xmlns="http://www.w3.org/2000/svg">
<g clip-path="url(#clip0_175_1867)">
<rect width="1024" height="753" fill="#121214"/>
<g opacity="0.2" filter="url(#filter0_f_175_1867)">
<ellipse cx="512.5" cy="85.0182" rx="670.5" ry="401.018" fill="#35875D"/>
</g>
<path d="M33.0349 355.419C34.5302 355.419 35.6622 356.141 36.4308 357.586C37.2134 359.015 37.6047 361.094 37.6047 363.825C37.6047 366.555 37.2134 368.642 36.4308 370.087C35.6622 371.532 34.5302 372.254 33.0349 372.254C31.5536 372.254 30.4216 371.532 29.639 370.087C28.8564 368.642 28.4651 366.555 28.4651 363.825C28.4651 361.11 28.8564 359.03 29.639 357.586C30.4216 356.141 31.5536 355.419 33.0349 355.419ZM29.9534 363.825C29.9534 365.761 30.1072 367.277 30.4146 368.373L35.0683 357.824C34.5791 357.078 33.9013 356.705 33.0349 356.705C32.0706 356.705 31.316 357.292 30.771 358.467C30.2259 359.626 29.9534 361.412 29.9534 363.825ZM33.0349 370.944C34.0131 370.944 34.7748 370.365 35.3198 369.206C35.8648 368.031 36.1373 366.237 36.1373 363.825C36.1373 361.777 35.9627 360.189 35.6133 359.062L30.9596 369.706C31.4627 370.531 32.1545 370.944 33.0349 370.944Z" fill="url(#paint0_linear_175_1867)" fill-opacity="0.6"/>
<path d="M34.2926 397.967H37.3741V399.229H29.3874V397.967H32.9511V384.585L29.5551 386.894L28.9682 385.823L33.1607 382.87H34.2926V397.967Z" fill="url(#paint1_linear_175_1867)" fill-opacity="0.6"/>
<path d="M33.0349 409.845C34.5302 409.845 35.6622 410.568 36.4308 412.012C37.2134 413.441 37.6047 415.52 37.6047 418.251C37.6047 420.981 37.2134 423.069 36.4308 424.513C35.6622 425.958 34.5302 426.68 33.0349 426.68C31.5536 426.68 30.4216 425.958 29.639 424.513C28.8564 423.069 28.4651 420.981 28.4651 418.251C28.4651 415.536 28.8564 413.457 29.639 412.012C30.4216 410.568 31.5536 409.845 33.0349 409.845ZM29.9534 418.251C29.9534 420.188 30.1072 421.704 30.4146 422.799L35.0683 412.25C34.5791 411.504 33.9013 411.131 33.0349 411.131C32.0706 411.131 31.316 411.719 30.771 412.893C30.2259 414.052 29.9534 415.838 29.9534 418.251ZM33.0349 425.371C34.0131 425.371 34.7748 424.791 35.3198 423.632C35.8648 422.458 36.1373 420.664 36.1373 418.251C36.1373 416.203 35.9627 414.616 35.6133 413.489L30.9596 424.132C31.4627 424.958 32.1545 425.371 33.0349 425.371Z" fill="url(#paint2_linear_175_1867)" fill-opacity="0.6"/>
<path d="M34.2926 452.393H37.3741V453.655H29.3874V452.393H32.9511V439.011L29.5551 441.321L28.9682 440.249L33.1607 437.297H34.2926V452.393Z" fill="url(#paint3_linear_175_1867)" fill-opacity="0.6"/>
<path d="M34.2926 479.606H37.3741V480.868H29.3874V479.606H32.9511V466.224L29.5551 468.534L28.9682 467.462L33.1607 464.51H34.2926V479.606Z" fill="url(#paint4_linear_175_1867)" fill-opacity="0.6"/>
<path d="M33.0349 491.485C34.5302 491.485 35.6622 492.207 36.4308 493.652C37.2134 495.08 37.6047 497.16 37.6047 499.89C37.6047 502.621 37.2134 504.708 36.4308 506.153C35.6622 507.597 34.5302 508.32 33.0349 508.32C31.5536 508.32 30.4216 507.597 29.639 506.153C28.8564 504.708 28.4651 502.621 28.4651 499.89C28.4651 497.176 28.8564 495.096 29.639 493.652C30.4216 492.207 31.5536 491.485 33.0349 491.485ZM29.9534 499.89C29.9534 501.827 30.1072 503.343 30.4146 504.438L35.0683 493.89C34.5791 493.144 33.9013 492.771 33.0349 492.771C32.0706 492.771 31.316 493.358 30.771 494.533C30.2259 495.692 29.9534 497.477 29.9534 499.89ZM33.0349 507.01C34.0131 507.01 34.7748 506.431 35.3198 505.272C35.8648 504.097 36.1373 502.303 36.1373 499.89C36.1373 497.843 35.9627 496.255 35.6133 495.128L30.9596 505.772C31.4627 506.597 32.1545 507.01 33.0349 507.01Z" fill="url(#paint5_linear_175_1867)" fill-opacity="0.6"/>
<path d="M34.2926 534.033H37.3741V535.295H29.3874V534.033H32.9511V520.651L29.5551 522.96L28.9682 521.889L33.1607 518.936H34.2926V534.033Z" fill="url(#paint6_linear_175_1867)" fill-opacity="0.6"/>
<path d="M33.0349 545.911C34.5302 545.911 35.6622 546.634 36.4308 548.078C37.2134 549.507 37.6047 551.586 37.6047 554.317C37.6047 557.047 37.2134 559.135 36.4308 560.579C35.6622 562.024 34.5302 562.746 33.0349 562.746C31.5536 562.746 30.4216 562.024 29.639 560.579C28.8564 559.135 28.4651 557.047 28.4651 554.317C28.4651 551.602 28.8564 549.523 29.639 548.078C30.4216 546.634 31.5536 545.911 33.0349 545.911ZM29.9534 554.317C29.9534 556.253 30.1072 557.769 30.4146 558.865L35.0683 548.316C34.5791 547.57 33.9013 547.197 33.0349 547.197C32.0706 547.197 31.316 547.784 30.771 548.959C30.2259 550.118 29.9534 551.904 29.9534 554.317ZM33.0349 561.436C34.0131 561.436 34.7748 560.857 35.3198 559.698C35.8648 558.523 36.1373 556.73 36.1373 554.317C36.1373 552.269 35.9627 550.681 35.6133 549.554L30.9596 560.198C31.4627 561.024 32.1545 561.436 33.0349 561.436Z" fill="url(#paint7_linear_175_1867)" fill-opacity="0.6"/>
<path d="M33.0349 573.124C34.5302 573.124 35.6622 573.847 36.4308 575.291C37.2134 576.72 37.6047 578.799 37.6047 581.53C37.6047 584.26 37.2134 586.348 36.4308 587.792C35.6622 589.237 34.5302 589.959 33.0349 589.959C31.5536 589.959 30.4216 589.237 29.639 587.792C28.8564 586.348 28.4651 584.26 28.4651 581.53C28.4651 578.815 28.8564 576.736 29.639 575.291C30.4216 573.847 31.5536 573.124 33.0349 573.124ZM29.9534 581.53C29.9534 583.467 30.1072 584.983 30.4146 586.078L35.0683 575.529C34.5791 574.783 33.9013 574.41 33.0349 574.41C32.0706 574.41 31.316 574.998 30.771 576.172C30.2259 577.331 29.9534 579.117 29.9534 581.53ZM33.0349 588.65C34.0131 588.65 34.7748 588.07 35.3198 586.911C35.8648 585.737 36.1373 583.943 36.1373 581.53C36.1373 579.482 35.9627 577.895 35.6133 576.768L30.9596 587.411C31.4627 588.237 32.1545 588.65 33.0349 588.65Z" fill="url(#paint8_linear_175_1867)" fill-opacity="0.6"/>
<path d="M34.2926 615.672H37.3741V616.934H29.3874V615.672H32.9511V602.29L29.5551 604.6L28.9682 603.528L33.1607 600.576H34.2926V615.672Z" fill="url(#paint9_linear_175_1867)" fill-opacity="0.6"/>
<path d="M33.0349 627.551C34.5302 627.551 35.6622 628.273 36.4308 629.718C37.2134 631.146 37.6047 633.226 37.6047 635.956C37.6047 638.687 37.2134 640.774 36.4308 642.219C35.6622 643.663 34.5302 644.385 33.0349 644.385C31.5536 644.385 30.4216 643.663 29.639 642.219C28.8564 640.774 28.4651 638.687 28.4651 635.956C28.4651 633.242 28.8564 631.162 29.639 629.718C30.4216 628.273 31.5536 627.551 33.0349 627.551ZM29.9534 635.956C29.9534 637.893 30.1072 639.409 30.4146 640.504L35.0683 629.956C34.5791 629.21 33.9013 628.837 33.0349 628.837C32.0706 628.837 31.316 629.424 30.771 630.599C30.2259 631.757 29.9534 633.543 29.9534 635.956ZM33.0349 643.076C34.0131 643.076 34.7748 642.496 35.3198 641.338C35.8648 640.163 36.1373 638.369 36.1373 635.956C36.1373 633.908 35.9627 632.321 35.6133 631.194L30.9596 641.838C31.4627 642.663 32.1545 643.076 33.0349 643.076Z" fill="url(#paint10_linear_175_1867)" fill-opacity="0.6"/>
<path d="M34.2926 670.098H37.3741V671.36H29.3874V670.098H32.9511V656.716L29.5551 659.026L28.9682 657.955L33.1607 655.002H34.2926V670.098Z" fill="url(#paint11_linear_175_1867)" fill-opacity="0.6"/>
<path d="M34.2926 697.312H37.3741V698.574H29.3874V697.312H32.9511V683.93L29.5551 686.239L28.9682 685.168L33.1607 682.215H34.2926V697.312Z" fill="url(#paint12_linear_175_1867)" fill-opacity="0.6"/>
<path d="M71.9651 409.845C73.4604 409.845 74.5924 410.568 75.361 412.012C76.1436 413.441 76.5349 415.52 76.5349 418.251C76.5349 420.981 76.1436 423.069 75.361 424.513C74.5924 425.958 73.4604 426.68 71.9651 426.68C70.4838 426.68 69.3518 425.958 68.5692 424.513C67.7866 423.069 67.3953 420.981 67.3953 418.251C67.3953 415.536 67.7866 413.457 68.5692 412.012C69.3518 410.568 70.4838 409.845 71.9651 409.845ZM68.8836 418.251C68.8836 420.188 69.0374 421.704 69.3448 422.799L73.9985 412.25C73.5093 411.504 72.8315 411.131 71.9651 411.131C71.0008 411.131 70.2462 411.719 69.7012 412.893C69.1561 414.052 68.8836 415.838 68.8836 418.251ZM71.9651 425.371C72.9433 425.371 73.705 424.791 74.25 423.632C74.795 422.458 75.0675 420.664 75.0675 418.251C75.0675 416.203 74.8928 414.616 74.5435 413.489L69.8898 424.132C70.3929 424.958 71.0847 425.371 71.9651 425.371Z" fill="url(#paint13_linear_175_1867)" fill-opacity="0.6"/>
<path d="M73.2228 452.393H76.3043V453.655H68.3176V452.393H71.8812V439.011L68.4853 441.321L67.8984 440.249L72.0909 437.297H73.2228V452.393Z" fill="url(#paint14_linear_175_1867)" fill-opacity="0.6"/>
<path d="M71.9651 464.272C73.4604 464.272 74.5924 464.994 75.361 466.439C76.1436 467.867 76.5349 469.947 76.5349 472.677C76.5349 475.408 76.1436 477.495 75.361 478.94C74.5924 480.384 73.4604 481.106 71.9651 481.106C70.4838 481.106 69.3518 480.384 68.5692 478.94C67.7866 477.495 67.3953 475.408 67.3953 472.677C67.3953 469.963 67.7866 467.883 68.5692 466.439C69.3518 464.994 70.4838 464.272 71.9651 464.272ZM68.8836 472.677C68.8836 474.614 69.0374 476.13 69.3448 477.225L73.9985 466.677C73.5093 465.931 72.8315 465.558 71.9651 465.558C71.0008 465.558 70.2462 466.145 69.7012 467.32C69.1561 468.478 68.8836 470.264 68.8836 472.677ZM71.9651 479.797C72.9433 479.797 73.705 479.217 74.25 478.059C74.795 476.884 75.0675 475.09 75.0675 472.677C75.0675 470.629 74.8928 469.042 74.5435 467.915L69.8898 478.559C70.3929 479.384 71.0847 479.797 71.9651 479.797Z" fill="url(#paint15_linear_175_1867)" fill-opacity="0.6"/>
<path d="M71.9651 491.485C73.4604 491.485 74.5924 492.207 75.361 493.652C76.1436 495.08 76.5349 497.16 76.5349 499.89C76.5349 502.621 76.1436 504.708 75.361 506.153C74.5924 507.597 73.4604 508.32 71.9651 508.32C70.4838 508.32 69.3518 507.597 68.5692 506.153C67.7866 504.708 67.3953 502.621 67.3953 499.89C67.3953 497.176 67.7866 495.096 68.5692 493.652C69.3518 492.207 70.4838 491.485 71.9651 491.485ZM68.8836 499.89C68.8836 501.827 69.0374 503.343 69.3448 504.438L73.9985 493.89C73.5093 493.144 72.8315 492.771 71.9651 492.771C71.0008 492.771 70.2462 493.358 69.7012 494.533C69.1561 495.692 68.8836 497.477 68.8836 499.89ZM71.9651 507.01C72.9433 507.01 73.705 506.431 74.25 505.272C74.795 504.097 75.0675 502.303 75.0675 499.89C75.0675 497.843 74.8928 496.255 74.5435 495.128L69.8898 505.772C70.3929 506.597 71.0847 507.01 71.9651 507.01Z" fill="url(#paint16_linear_175_1867)" fill-opacity="0.6"/>
<path d="M73.2228 534.033H76.3043V535.295H68.3176V534.033H71.8812V520.651L68.4853 522.96L67.8984 521.889L72.0909 518.936H73.2228V534.033Z" fill="url(#paint17_linear_175_1867)" fill-opacity="0.6"/>
<path d="M71.9651 545.911C73.4604 545.911 74.5924 546.634 75.361 548.078C76.1436 549.507 76.5349 551.586 76.5349 554.317C76.5349 557.047 76.1436 559.135 75.361 560.579C74.5924 562.024 73.4604 562.746 71.9651 562.746C70.4838 562.746 69.3518 562.024 68.5692 560.579C67.7866 559.135 67.3953 557.047 67.3953 554.317C67.3953 551.602 67.7866 549.523 68.5692 548.078C69.3518 546.634 70.4838 545.911 71.9651 545.911ZM68.8836 554.317C68.8836 556.253 69.0374 557.769 69.3448 558.865L73.9985 548.316C73.5093 547.57 72.8315 547.197 71.9651 547.197C71.0008 547.197 70.2462 547.784 69.7012 548.959C69.1561 550.118 68.8836 551.904 68.8836 554.317ZM71.9651 561.436C72.9433 561.436 73.705 560.857 74.25 559.698C74.795 558.523 75.0675 556.73 75.0675 554.317C75.0675 552.269 74.8928 550.681 74.5435 549.554L69.8898 560.198C70.3929 561.024 71.0847 561.436 71.9651 561.436Z" fill="url(#paint18_linear_175_1867)" fill-opacity="0.6"/>
<path d="M73.2228 588.459H76.3043V589.721H68.3176V588.459H71.8812V575.077L68.4853 577.387L67.8984 576.315L72.0909 573.362H73.2228V588.459Z" fill="url(#paint19_linear_175_1867)" fill-opacity="0.6"/>
<path d="M71.9651 600.338C73.4604 600.338 74.5924 601.06 75.361 602.504C76.1436 603.933 76.5349 606.013 76.5349 608.743C76.5349 611.473 76.1436 613.561 75.361 615.005C74.5924 616.45 73.4604 617.172 71.9651 617.172C70.4838 617.172 69.3518 616.45 68.5692 615.005C67.7866 613.561 67.3953 611.473 67.3953 608.743C67.3953 606.028 67.7866 603.949 68.5692 602.504C69.3518 601.06 70.4838 600.338 71.9651 600.338ZM68.8836 608.743C68.8836 610.68 69.0374 612.196 69.3448 613.291L73.9985 602.743C73.5093 601.996 72.8315 601.623 71.9651 601.623C71.0008 601.623 70.2462 602.211 69.7012 603.385C69.1561 604.544 68.8836 606.33 68.8836 608.743ZM71.9651 615.863C72.9433 615.863 73.705 615.283 74.25 614.124C74.795 612.95 75.0675 611.156 75.0675 608.743C75.0675 606.695 74.8928 605.108 74.5435 603.981L69.8898 614.624C70.3929 615.45 71.0847 615.863 71.9651 615.863Z" fill="url(#paint20_linear_175_1867)" fill-opacity="0.6"/>
<path d="M71.9651 627.551C73.4604 627.551 74.5924 628.273 75.361 629.718C76.1436 631.146 76.5349 633.226 76.5349 635.956C76.5349 638.687 76.1436 640.774 75.361 642.219C74.5924 643.663 73.4604 644.385 71.9651 644.385C70.4838 644.385 69.3518 643.663 68.5692 642.219C67.7866 640.774 67.3953 638.687 67.3953 635.956C67.3953 633.242 67.7866 631.162 68.5692 629.718C69.3518 628.273 70.4838 627.551 71.9651 627.551ZM68.8836 635.956C68.8836 637.893 69.0374 639.409 69.3448 640.504L73.9985 629.956C73.5093 629.21 72.8315 628.837 71.9651 628.837C71.0008 628.837 70.2462 629.424 69.7012 630.599C69.1561 631.757 68.8836 633.543 68.8836 635.956ZM71.9651 643.076C72.9433 643.076 73.705 642.496 74.25 641.338C74.795 640.163 75.0675 638.369 75.0675 635.956C75.0675 633.908 74.8928 632.321 74.5435 631.194L69.8898 641.838C70.3929 642.663 71.0847 643.076 71.9651 643.076Z" fill="url(#paint21_linear_175_1867)" fill-opacity="0.6"/>
<path d="M73.2228 670.098H76.3043V671.36H68.3176V670.098H71.8812V656.716L68.4853 659.026L67.8984 657.955L72.0909 655.002H73.2228V670.098Z" fill="url(#paint22_linear_175_1867)" fill-opacity="0.6"/>
<path d="M71.9651 681.977C73.4604 681.977 74.5924 682.699 75.361 684.144C76.1436 685.573 76.5349 687.652 76.5349 690.382C76.5349 693.113 76.1436 695.2 75.361 696.645C74.5924 698.089 73.4604 698.812 71.9651 698.812C70.4838 698.812 69.3518 698.089 68.5692 696.645C67.7866 695.2 67.3953 693.113 67.3953 690.382C67.3953 687.668 67.7866 685.588 68.5692 684.144C69.3518 682.699 70.4838 681.977 71.9651 681.977ZM68.8836 690.382C68.8836 692.319 69.0374 693.835 69.3448 694.931L73.9985 684.382C73.5093 683.636 72.8315 683.263 71.9651 683.263C71.0008 683.263 70.2462 683.85 69.7012 685.025C69.1561 686.184 68.8836 687.97 68.8836 690.382ZM71.9651 697.502C72.9433 697.502 73.705 696.923 74.25 695.764C74.795 694.589 75.0675 692.795 75.0675 690.382C75.0675 688.335 74.8928 686.747 74.5435 685.62L69.8898 696.264C70.3929 697.089 71.0847 697.502 71.9651 697.502Z" fill="url(#paint23_linear_175_1867)" fill-opacity="0.6"/>
<path d="M73.2228 724.525H76.3043V725.787H68.3176V724.525H71.8812V711.143L68.4853 713.452L67.8984 712.381L72.0909 709.428H73.2228V724.525Z" fill="url(#paint24_linear_175_1867)" fill-opacity="0.6"/>
<path d="M73.2228 751.738H76.3043V753H68.3176V751.738H71.8812V738.356L68.4853 740.666L67.8984 739.594L72.0909 736.641H73.2228V751.738Z" fill="url(#paint25_linear_175_1867)" fill-opacity="0.6"/>
<path d="M13.5698 437.059C15.0651 437.059 16.1971 437.781 16.9657 439.225C17.7483 440.654 18.1396 442.734 18.1396 445.464C18.1396 448.194 17.7483 450.282 16.9657 451.726C16.1971 453.171 15.0651 453.893 13.5698 453.893C12.0885 453.893 10.9565 453.171 10.1739 451.726C9.3913 450.282 9 448.194 9 445.464C9 442.75 9.3913 440.67 10.1739 439.225C10.9565 437.781 12.0885 437.059 13.5698 437.059ZM10.4883 445.464C10.4883 447.401 10.6421 448.917 10.9495 450.012L15.6032 439.464C15.114 438.717 14.4363 438.344 13.5698 438.344C12.6055 438.344 11.8509 438.932 11.3059 440.106C10.7608 441.265 10.4883 443.051 10.4883 445.464ZM13.5698 452.584C14.5481 452.584 15.3097 452.004 15.8547 450.845C16.3997 449.671 16.6722 447.877 16.6722 445.464C16.6722 443.416 16.4976 441.829 16.1482 440.702L11.4945 451.345C11.9976 452.171 12.6894 452.584 13.5698 452.584Z" fill="url(#paint26_linear_175_1867)" fill-opacity="0.6"/>
<path d="M13.5698 464.272C15.0651 464.272 16.1971 464.994 16.9657 466.439C17.7483 467.867 18.1396 469.947 18.1396 472.677C18.1396 475.408 17.7483 477.495 16.9657 478.94C16.1971 480.384 15.0651 481.106 13.5698 481.106C12.0885 481.106 10.9565 480.384 10.1739 478.94C9.3913 477.495 9 475.408 9 472.677C9 469.963 9.3913 467.883 10.1739 466.439C10.9565 464.994 12.0885 464.272 13.5698 464.272ZM10.4883 472.677C10.4883 474.614 10.6421 476.13 10.9495 477.225L15.6032 466.677C15.114 465.931 14.4363 465.558 13.5698 465.558C12.6055 465.558 11.8509 466.145 11.3059 467.32C10.7608 468.478 10.4883 470.264 10.4883 472.677ZM13.5698 479.797C14.5481 479.797 15.3097 479.217 15.8547 478.059C16.3997 476.884 16.6722 475.09 16.6722 472.677C16.6722 470.629 16.4976 469.042 16.1482 467.915L11.4945 478.559C11.9976 479.384 12.6894 479.797 13.5698 479.797Z" fill="url(#paint27_linear_175_1867)" fill-opacity="0.6"/>
<path d="M14.8276 506.82H17.909V508.082H9.92235V506.82H13.486V493.437L10.09 495.747L9.5031 494.676L13.6956 491.723H14.8276V506.82Z" fill="url(#paint28_linear_175_1867)" fill-opacity="0.6"/>
<path d="M13.5698 518.698C15.0651 518.698 16.1971 519.42 16.9657 520.865C17.7483 522.294 18.1396 524.373 18.1396 527.104C18.1396 529.834 17.7483 531.921 16.9657 533.366C16.1971 534.811 15.0651 535.533 13.5698 535.533C12.0885 535.533 10.9565 534.811 10.1739 533.366C9.3913 531.921 9 529.834 9 527.104C9 524.389 9.3913 522.309 10.1739 520.865C10.9565 519.42 12.0885 518.698 13.5698 518.698ZM10.4883 527.104C10.4883 529.04 10.6421 530.556 10.9495 531.652L15.6032 521.103C15.114 520.357 14.4363 519.984 13.5698 519.984C12.6055 519.984 11.8509 520.571 11.3059 521.746C10.7608 522.905 10.4883 524.691 10.4883 527.104ZM13.5698 534.223C14.5481 534.223 15.3097 533.644 15.8547 532.485C16.3997 531.31 16.6722 529.516 16.6722 527.104C16.6722 525.056 16.4976 523.468 16.1482 522.341L11.4945 532.985C11.9976 533.81 12.6894 534.223 13.5698 534.223Z" fill="url(#paint29_linear_175_1867)" fill-opacity="0.6"/>
<path d="M14.8276 561.246H17.909V562.508H9.92235V561.246H13.486V547.864L10.09 550.173L9.5031 549.102L13.6956 546.149H14.8276V561.246Z" fill="url(#paint30_linear_175_1867)" fill-opacity="0.6"/>
<path d="M14.8276 588.459H17.909V589.721H9.92235V588.459H13.486V575.077L10.09 577.387L9.5031 576.315L13.6956 573.362H14.8276V588.459Z" fill="url(#paint31_linear_175_1867)" fill-opacity="0.6"/>
<path d="M53.7577 397.967H56.8392V399.229H48.8525V397.967H52.4162V384.585L49.0202 386.894L48.4333 385.823L52.6258 382.87H53.7577V397.967Z" fill="url(#paint32_linear_175_1867)" fill-opacity="0.6"/>
<path d="M52.5 409.845C53.9953 409.845 55.1273 410.568 55.8959 412.012C56.6785 413.441 57.0698 415.52 57.0698 418.251C57.0698 420.981 56.6785 423.069 55.8959 424.513C55.1273 425.958 53.9953 426.68 52.5 426.68C51.0187 426.68 49.8867 425.958 49.1041 424.513C48.3215 423.069 47.9302 420.981 47.9302 418.251C47.9302 415.536 48.3215 413.457 49.1041 412.012C49.8867 410.568 51.0187 409.845 52.5 409.845ZM49.4185 418.251C49.4185 420.188 49.5723 421.704 49.8797 422.799L54.5334 412.25C54.0442 411.504 53.3664 411.131 52.5 411.131C51.5357 411.131 50.7811 411.719 50.2361 412.893C49.691 414.052 49.4185 415.838 49.4185 418.251ZM52.5 425.371C53.4782 425.371 54.2399 424.791 54.7849 423.632C55.3299 422.458 55.6024 420.664 55.6024 418.251C55.6024 416.203 55.4277 414.616 55.0784 413.489L50.4247 424.132C50.9278 424.958 51.6196 425.371 52.5 425.371Z" fill="url(#paint33_linear_175_1867)" fill-opacity="0.6"/>
<path d="M53.7577 452.393H56.8392V453.655H48.8525V452.393H52.4162V439.011L49.0202 441.321L48.4333 440.249L52.6258 437.297H53.7577V452.393Z" fill="url(#paint34_linear_175_1867)" fill-opacity="0.6"/>
<path d="M53.7577 479.606H56.8392V480.868H48.8525V479.606H52.4162V466.224L49.0202 468.534L48.4333 467.462L52.6258 464.51H53.7577V479.606Z" fill="url(#paint35_linear_175_1867)" fill-opacity="0.6"/>
<path d="M52.5 491.485C53.9953 491.485 55.1273 492.207 55.8959 493.652C56.6785 495.08 57.0698 497.16 57.0698 499.89C57.0698 502.621 56.6785 504.708 55.8959 506.153C55.1273 507.597 53.9953 508.32 52.5 508.32C51.0187 508.32 49.8867 507.597 49.1041 506.153C48.3215 504.708 47.9302 502.621 47.9302 499.89C47.9302 497.176 48.3215 495.096 49.1041 493.652C49.8867 492.207 51.0187 491.485 52.5 491.485ZM49.4185 499.89C49.4185 501.827 49.5723 503.343 49.8797 504.438L54.5334 493.89C54.0442 493.144 53.3664 492.771 52.5 492.771C51.5357 492.771 50.7811 493.358 50.2361 494.533C49.691 495.692 49.4185 497.477 49.4185 499.89ZM52.5 507.01C53.4782 507.01 54.2399 506.431 54.7849 505.272C55.3299 504.097 55.6024 502.303 55.6024 499.89C55.6024 497.843 55.4277 496.255 55.0784 495.128L50.4247 505.772C50.9278 506.597 51.6196 507.01 52.5 507.01Z" fill="url(#paint36_linear_175_1867)" fill-opacity="0.6"/>
<path d="M53.7577 534.033H56.8392V535.295H48.8525V534.033H52.4162V520.651L49.0202 522.96L48.4333 521.889L52.6258 518.936H53.7577V534.033Z" fill="url(#paint37_linear_175_1867)" fill-opacity="0.6"/>
<path d="M53.7577 561.246H56.8392V562.508H48.8525V561.246H52.4162V547.864L49.0202 550.173L48.4333 549.102L52.6258 546.149H53.7577V561.246Z" fill="url(#paint38_linear_175_1867)" fill-opacity="0.6"/>
<path d="M52.5 573.124C53.9953 573.124 55.1273 573.847 55.8959 575.291C56.6785 576.72 57.0698 578.799 57.0698 581.53C57.0698 584.26 56.6785 586.348 55.8959 587.792C55.1273 589.237 53.9953 589.959 52.5 589.959C51.0187 589.959 49.8867 589.237 49.1041 587.792C48.3215 586.348 47.9302 584.26 47.9302 581.53C47.9302 578.815 48.3215 576.736 49.1041 575.291C49.8867 573.847 51.0187 573.124 52.5 573.124ZM49.4185 581.53C49.4185 583.467 49.5723 584.983 49.8797 586.078L54.5334 575.529C54.0442 574.783 53.3664 574.41 52.5 574.41C51.5357 574.41 50.7811 574.998 50.2361 576.172C49.691 577.331 49.4185 579.117 49.4185 581.53ZM52.5 588.65C53.4782 588.65 54.2399 588.07 54.7849 586.911C55.3299 585.737 55.6024 583.943 55.6024 581.53C55.6024 579.482 55.4277 577.895 55.0784 576.768L50.4247 587.411C50.9278 588.237 51.6196 588.65 52.5 588.65Z" fill="url(#paint39_linear_175_1867)" fill-opacity="0.6"/>
<path d="M53.7577 615.672H56.8392V616.934H48.8525V615.672H52.4162V602.29L49.0202 604.6L48.4333 603.528L52.6258 600.576H53.7577V615.672Z" fill="url(#paint40_linear_175_1867)" fill-opacity="0.6"/>
<path d="M52.5 627.551C53.9953 627.551 55.1273 628.273 55.8959 629.718C56.6785 631.146 57.0698 633.226 57.0698 635.956C57.0698 638.687 56.6785 640.774 55.8959 642.219C55.1273 643.663 53.9953 644.385 52.5 644.385C51.0187 644.385 49.8867 643.663 49.1041 642.219C48.3215 640.774 47.9302 638.687 47.9302 635.956C47.9302 633.242 48.3215 631.162 49.1041 629.718C49.8867 628.273 51.0187 627.551 52.5 627.551ZM49.4185 635.956C49.4185 637.893 49.5723 639.409 49.8797 640.504L54.5334 629.956C54.0442 629.21 53.3664 628.837 52.5 628.837C51.5357 628.837 50.7811 629.424 50.2361 630.599C49.691 631.757 49.4185 633.543 49.4185 635.956ZM52.5 643.076C53.4782 643.076 54.2399 642.496 54.7849 641.338C55.3299 640.163 55.6024 638.369 55.6024 635.956C55.6024 633.908 55.4277 632.321 55.0784 631.194L50.4247 641.838C50.9278 642.663 51.6196 643.076 52.5 643.076Z" fill="url(#paint41_linear_175_1867)" fill-opacity="0.6"/>
<path d="M91.4302 382.632C92.9255 382.632 94.0575 383.355 94.8261 384.799C95.6087 386.228 96 388.307 96 391.038C96 393.768 95.6087 395.856 94.8261 397.3C94.0575 398.745 92.9255 399.467 91.4302 399.467C89.9489 399.467 88.8169 398.745 88.0343 397.3C87.2517 395.856 86.8604 393.768 86.8604 391.038C86.8604 388.323 87.2517 386.244 88.0343 384.799C88.8169 383.355 89.9489 382.632 91.4302 382.632ZM88.3487 391.038C88.3487 392.974 88.5024 394.49 88.8099 395.586L93.4636 385.037C92.9744 384.291 92.2966 383.918 91.4302 383.918C90.4659 383.918 89.7113 384.505 89.1663 385.68C88.6212 386.839 88.3487 388.625 88.3487 391.038ZM91.4302 398.157C92.4084 398.157 93.1701 397.578 93.7151 396.419C94.2601 395.244 94.5326 393.451 94.5326 391.038C94.5326 388.99 94.3579 387.402 94.0086 386.275L89.3549 396.919C89.858 397.745 90.5498 398.157 91.4302 398.157Z" fill="url(#paint42_linear_175_1867)" fill-opacity="0.6"/>
<path d="M92.6879 425.18H95.7694V426.442H87.7827V425.18H91.3463V411.798L87.9504 414.108L87.3635 413.036L91.556 410.084H92.6879V425.18Z" fill="url(#paint43_linear_175_1867)" fill-opacity="0.6"/>
<path d="M92.6879 452.393H95.7694V453.655H87.7827V452.393H91.3463V439.011L87.9504 441.321L87.3635 440.249L91.556 437.297H92.6879V452.393Z" fill="url(#paint44_linear_175_1867)" fill-opacity="0.6"/>
<path d="M91.4302 464.272C92.9255 464.272 94.0575 464.994 94.8261 466.439C95.6087 467.867 96 469.947 96 472.677C96 475.408 95.6087 477.495 94.8261 478.94C94.0575 480.384 92.9255 481.106 91.4302 481.106C89.9489 481.106 88.8169 480.384 88.0343 478.94C87.2517 477.495 86.8604 475.408 86.8604 472.677C86.8604 469.963 87.2517 467.883 88.0343 466.439C88.8169 464.994 89.9489 464.272 91.4302 464.272ZM88.3487 472.677C88.3487 474.614 88.5024 476.13 88.8099 477.225L93.4636 466.677C92.9744 465.931 92.2966 465.558 91.4302 465.558C90.4659 465.558 89.7113 466.145 89.1663 467.32C88.6212 468.478 88.3487 470.264 88.3487 472.677ZM91.4302 479.797C92.4084 479.797 93.1701 479.217 93.7151 478.059C94.2601 476.884 94.5326 475.09 94.5326 472.677C94.5326 470.629 94.3579 469.042 94.0086 467.915L89.3549 478.559C89.858 479.384 90.5498 479.797 91.4302 479.797Z" fill="url(#paint45_linear_175_1867)" fill-opacity="0.6"/>
<path d="M91.4302 491.485C92.9255 491.485 94.0575 492.207 94.8261 493.652C95.6087 495.08 96 497.16 96 499.89C96 502.621 95.6087 504.708 94.8261 506.153C94.0575 507.597 92.9255 508.32 91.4302 508.32C89.9489 508.32 88.8169 507.597 88.0343 506.153C87.2517 504.708 86.8604 502.621 86.8604 499.89C86.8604 497.176 87.2517 495.096 88.0343 493.652C88.8169 492.207 89.9489 491.485 91.4302 491.485ZM88.3487 499.89C88.3487 501.827 88.5024 503.343 88.8099 504.438L93.4636 493.89C92.9744 493.144 92.2966 492.771 91.4302 492.771C90.4659 492.771 89.7113 493.358 89.1663 494.533C88.6212 495.692 88.3487 497.477 88.3487 499.89ZM91.4302 507.01C92.4084 507.01 93.1701 506.431 93.7151 505.272C94.2601 504.097 94.5326 502.303 94.5326 499.89C94.5326 497.843 94.3579 496.255 94.0086 495.128L89.3549 505.772C89.858 506.597 90.5498 507.01 91.4302 507.01Z" fill="url(#paint46_linear_175_1867)" fill-opacity="0.6"/>
<g opacity="0.6">
<path d="M919.93 11.6892C921.356 11.6892 922.436 12.3824 923.17 13.7686C923.916 15.1397 924.29 17.1353 924.29 19.7555C924.29 22.3758 923.916 24.379 923.17 25.7653C922.436 27.1516 921.356 27.8447 919.93 27.8447C918.517 27.8447 917.437 27.1516 916.69 25.7653C915.943 24.379 915.57 22.3758 915.57 19.7555C915.57 17.1506 915.943 15.1549 916.69 13.7686C917.437 12.3824 918.517 11.6892 919.93 11.6892ZM916.99 19.7555C916.99 21.6141 917.137 23.0689 917.43 24.1201L921.87 13.9971C921.403 13.2811 920.756 12.9232 919.93 12.9232C919.01 12.9232 918.29 13.4868 917.77 14.6141C917.25 15.7262 916.99 17.44 916.99 19.7555ZM919.93 26.5879C920.863 26.5879 921.59 26.0319 922.11 24.9198C922.63 23.7925 922.89 22.0711 922.89 19.7555C922.89 17.7904 922.723 16.267 922.39 15.1854L917.95 25.3997C918.43 26.1919 919.09 26.5879 919.93 26.5879Z" fill="url(#paint47_linear_175_1867)"/>
<path d="M921.13 52.5204H924.07V53.7315H916.45V52.5204H919.85V39.6782L916.61 41.8947L916.05 40.8664L920.05 38.0329H921.13V52.5204Z" fill="url(#paint48_linear_175_1867)"/>
<path d="M919.93 63.9197C921.356 63.9197 922.436 64.6128 923.17 65.9991C923.916 67.3701 924.29 69.3658 924.29 71.986C924.29 74.6062 923.916 76.6095 923.17 77.9958C922.436 79.382 921.356 80.0752 919.93 80.0752C918.517 80.0752 917.437 79.382 916.69 77.9958C915.943 76.6095 915.57 74.6062 915.57 71.986C915.57 69.381 915.943 67.3854 916.69 65.9991C917.437 64.6128 918.517 63.9197 919.93 63.9197ZM916.99 71.986C916.99 73.8445 917.137 75.2994 917.43 76.3505L921.87 66.2276C921.403 65.5116 920.756 65.1536 919.93 65.1536C919.01 65.1536 918.29 65.7173 917.77 66.8446C917.25 67.9566 916.99 69.6705 916.99 71.986ZM919.93 78.8184C920.863 78.8184 921.59 78.2624 922.11 77.1503C922.63 76.023 922.89 74.3016 922.89 71.986C922.89 70.0208 922.723 68.4974 922.39 67.4158L917.95 77.6302C918.43 78.4223 919.09 78.8184 919.93 78.8184Z" fill="url(#paint49_linear_175_1867)"/>
<path d="M921.13 104.751H924.07V105.962H916.45V104.751H919.85V91.9086L916.61 94.1252L916.05 93.0969L920.05 90.2634H921.13V104.751Z" fill="url(#paint50_linear_175_1867)"/>
<path d="M921.13 130.866H924.07V132.077H916.45V130.866H919.85V118.024L916.61 120.24L916.05 119.212L920.05 116.379H921.13V130.866Z" fill="url(#paint51_linear_175_1867)"/>
<path d="M919.93 142.265C921.356 142.265 922.436 142.958 923.17 144.345C923.916 145.716 924.29 147.711 924.29 150.332C924.29 152.952 923.916 154.955 923.17 156.341C922.436 157.728 921.356 158.421 919.93 158.421C918.517 158.421 917.437 157.728 916.69 156.341C915.943 154.955 915.57 152.952 915.57 150.332C915.57 147.727 915.943 145.731 916.69 144.345C917.437 142.958 918.517 142.265 919.93 142.265ZM916.99 150.332C916.99 152.19 917.137 153.645 917.43 154.696L921.87 144.573C921.403 143.857 920.756 143.499 919.93 143.499C919.01 143.499 918.29 144.063 917.77 145.19C917.25 146.302 916.99 148.016 916.99 150.332ZM919.93 157.164C920.863 157.164 921.59 156.608 922.11 155.496C922.63 154.369 922.89 152.647 922.89 150.332C922.89 148.367 922.723 146.843 922.39 145.762L917.95 155.976C918.43 156.768 919.09 157.164 919.93 157.164Z" fill="url(#paint52_linear_175_1867)"/>
<path d="M921.13 183.096H924.07V184.308H916.45V183.096H919.85V170.254L916.61 172.471L916.05 171.443L920.05 168.609H921.13V183.096Z" fill="url(#paint53_linear_175_1867)"/>
<path d="M919.93 194.496C921.356 194.496 922.436 195.189 923.17 196.575C923.916 197.946 924.29 199.942 924.29 202.562C924.29 205.182 923.916 207.186 923.17 208.572C922.436 209.958 921.356 210.651 919.93 210.651C918.517 210.651 917.437 209.958 916.69 208.572C915.943 207.186 915.57 205.182 915.57 202.562C915.57 199.957 915.943 197.962 916.69 196.575C917.437 195.189 918.517 194.496 919.93 194.496ZM916.99 202.562C916.99 204.421 917.137 205.875 917.43 206.927L921.87 196.804C921.403 196.088 920.756 195.73 919.93 195.73C919.01 195.73 918.29 196.293 917.77 197.421C917.25 198.533 916.99 200.247 916.99 202.562ZM919.93 209.395C920.863 209.395 921.59 208.839 922.11 207.726C922.63 206.599 922.89 204.878 922.89 202.562C922.89 200.597 922.723 199.074 922.39 197.992L917.95 208.206C918.43 208.998 919.09 209.395 919.93 209.395Z" fill="url(#paint54_linear_175_1867)"/>
<path d="M919.93 220.611C921.356 220.611 922.436 221.304 923.17 222.69C923.916 224.061 924.29 226.057 924.29 228.677C924.29 231.298 923.916 233.301 923.17 234.687C922.436 236.073 921.356 236.767 919.93 236.767C918.517 236.767 917.437 236.073 916.69 234.687C915.943 233.301 915.57 231.298 915.57 228.677C915.57 226.072 915.943 224.077 916.69 222.69C917.437 221.304 918.517 220.611 919.93 220.611ZM916.99 228.677C916.99 230.536 917.137 231.991 917.43 233.042L921.87 222.919C921.403 222.203 920.756 221.845 919.93 221.845C919.01 221.845 918.29 222.409 917.77 223.536C917.25 224.648 916.99 226.362 916.99 228.677ZM919.93 235.51C920.863 235.51 921.59 234.954 922.11 233.842C922.63 232.714 922.89 230.993 922.89 228.677C922.89 226.712 922.723 225.189 922.39 224.107L917.95 234.321C918.43 235.114 919.09 235.51 919.93 235.51Z" fill="url(#paint55_linear_175_1867)"/>
<path d="M921.13 261.442H924.07V262.653H916.45V261.442H919.85V248.6L916.61 250.817L916.05 249.788L920.05 246.955H921.13V261.442Z" fill="url(#paint56_linear_175_1867)"/>
<path d="M919.93 272.841C921.356 272.841 922.436 273.535 923.17 274.921C923.916 276.292 924.29 278.288 924.29 280.908C924.29 283.528 923.916 285.531 923.17 286.918C922.436 288.304 921.356 288.997 919.93 288.997C918.517 288.997 917.437 288.304 916.69 286.918C915.943 285.531 915.57 283.528 915.57 280.908C915.57 278.303 915.943 276.307 916.69 274.921C917.437 273.535 918.517 272.841 919.93 272.841ZM916.99 280.908C916.99 282.766 917.137 284.221 917.43 285.272L921.87 275.149C921.403 274.433 920.756 274.075 919.93 274.075C919.01 274.075 918.29 274.639 917.77 275.766C917.25 276.878 916.99 278.592 916.99 280.908ZM919.93 287.74C920.863 287.74 921.59 287.184 922.11 286.072C922.63 284.945 922.89 283.223 922.89 280.908C922.89 278.943 922.723 277.419 922.39 276.338L917.95 286.552C918.43 287.344 919.09 287.74 919.93 287.74Z" fill="url(#paint57_linear_175_1867)"/>
<path d="M921.13 313.673H924.07V314.884H916.45V313.673H919.85V300.83L916.61 303.047L916.05 302.019L920.05 299.185H921.13V313.673Z" fill="url(#paint58_linear_175_1867)"/>
<path d="M921.13 339.788H924.07V340.999H916.45V339.788H919.85V326.946L916.61 329.162L916.05 328.134L920.05 325.3H921.13V339.788Z" fill="url(#paint59_linear_175_1867)"/>
<path d="M957.07 63.9197C958.497 63.9197 959.577 64.6128 960.31 65.9991C961.057 67.3701 961.43 69.3658 961.43 71.986C961.43 74.6062 961.057 76.6095 960.31 77.9958C959.577 79.382 958.497 80.0752 957.07 80.0752C955.657 80.0752 954.577 79.382 953.83 77.9958C953.084 76.6095 952.71 74.6062 952.71 71.986C952.71 69.381 953.084 67.3854 953.83 65.9991C954.577 64.6128 955.657 63.9197 957.07 63.9197ZM954.13 71.986C954.13 73.8445 954.277 75.2994 954.57 76.3505L959.01 66.2276C958.543 65.5116 957.897 65.1536 957.07 65.1536C956.15 65.1536 955.43 65.7173 954.91 66.8446C954.39 67.9566 954.13 69.6705 954.13 71.986ZM957.07 78.8184C958.003 78.8184 958.73 78.2624 959.25 77.1503C959.77 76.023 960.03 74.3016 960.03 71.986C960.03 70.0208 959.863 68.4974 959.53 67.4158L955.09 77.6302C955.57 78.4223 956.23 78.8184 957.07 78.8184Z" fill="url(#paint60_linear_175_1867)"/>
<path d="M958.27 104.751H961.21V105.962H953.59V104.751H956.99V91.9086L953.75 94.1252L953.19 93.0969L957.19 90.2634H958.27V104.751Z" fill="url(#paint61_linear_175_1867)"/>
<path d="M957.07 116.15C958.497 116.15 959.577 116.843 960.31 118.23C961.057 119.601 961.43 121.596 961.43 124.216C961.43 126.837 961.057 128.84 960.31 130.226C959.577 131.613 958.497 132.306 957.07 132.306C955.657 132.306 954.577 131.613 953.83 130.226C953.084 128.84 952.71 126.837 952.71 124.216C952.71 121.611 953.084 119.616 953.83 118.23C954.577 116.843 955.657 116.15 957.07 116.15ZM954.13 124.216C954.13 126.075 954.277 127.53 954.57 128.581L959.01 118.458C958.543 117.742 957.897 117.384 957.07 117.384C956.15 117.384 955.43 117.948 954.91 119.075C954.39 120.187 954.13 121.901 954.13 124.216ZM957.07 131.049C958.003 131.049 958.73 130.493 959.25 129.381C959.77 128.253 960.03 126.532 960.03 124.216C960.03 122.251 959.863 120.728 959.53 119.646L955.09 129.861C955.57 130.653 956.23 131.049 957.07 131.049Z" fill="url(#paint62_linear_175_1867)"/>
<path d="M957.07 142.265C958.497 142.265 959.577 142.958 960.31 144.345C961.057 145.716 961.43 147.711 961.43 150.332C961.43 152.952 961.057 154.955 960.31 156.341C959.577 157.728 958.497 158.421 957.07 158.421C955.657 158.421 954.577 157.728 953.83 156.341C953.084 154.955 952.71 152.952 952.71 150.332C952.71 147.727 953.084 145.731 953.83 144.345C954.577 142.958 955.657 142.265 957.07 142.265ZM954.13 150.332C954.13 152.19 954.277 153.645 954.57 154.696L959.01 144.573C958.543 143.857 957.897 143.499 957.07 143.499C956.15 143.499 955.43 144.063 954.91 145.19C954.39 146.302 954.13 148.016 954.13 150.332ZM957.07 157.164C958.003 157.164 958.73 156.608 959.25 155.496C959.77 154.369 960.03 152.647 960.03 150.332C960.03 148.367 959.863 146.843 959.53 145.762L955.09 155.976C955.57 156.768 956.23 157.164 957.07 157.164Z" fill="url(#paint63_linear_175_1867)"/>
<path d="M958.27 183.096H961.21V184.308H953.59V183.096H956.99V170.254L953.75 172.471L953.19 171.443L957.19 168.609H958.27V183.096Z" fill="url(#paint64_linear_175_1867)"/>
<path d="M957.07 194.496C958.497 194.496 959.577 195.189 960.31 196.575C961.057 197.946 961.43 199.942 961.43 202.562C961.43 205.182 961.057 207.186 960.31 208.572C959.577 209.958 958.497 210.651 957.07 210.651C955.657 210.651 954.577 209.958 953.83 208.572C953.084 207.186 952.71 205.182 952.71 202.562C952.71 199.957 953.084 197.962 953.83 196.575C954.577 195.189 955.657 194.496 957.07 194.496ZM954.13 202.562C954.13 204.421 954.277 205.875 954.57 206.927L959.01 196.804C958.543 196.088 957.897 195.73 957.07 195.73C956.15 195.73 955.43 196.293 954.91 197.421C954.39 198.533 954.13 200.247 954.13 202.562ZM957.07 209.395C958.003 209.395 958.73 208.839 959.25 207.726C959.77 206.599 960.03 204.878 960.03 202.562C960.03 200.597 959.863 199.074 959.53 197.992L955.09 208.206C955.57 208.998 956.23 209.395 957.07 209.395Z" fill="url(#paint65_linear_175_1867)"/>
<path d="M958.27 235.327H961.21V236.538H953.59V235.327H956.99V222.485L953.75 224.701L953.19 223.673L957.19 220.84H958.27V235.327Z" fill="url(#paint66_linear_175_1867)"/>
<path d="M957.07 246.726C958.497 246.726 959.577 247.419 960.31 248.806C961.057 250.177 961.43 252.172 961.43 254.793C961.43 257.413 961.057 259.416 960.31 260.802C959.577 262.189 958.497 262.882 957.07 262.882C955.657 262.882 954.577 262.189 953.83 260.802C953.084 259.416 952.71 257.413 952.71 254.793C952.71 252.188 953.084 250.192 953.83 248.806C954.577 247.419 955.657 246.726 957.07 246.726ZM954.13 254.793C954.13 256.651 954.277 258.106 954.57 259.157L959.01 249.034C958.543 248.318 957.897 247.96 957.07 247.96C956.15 247.96 955.43 248.524 954.91 249.651C954.39 250.763 954.13 252.477 954.13 254.793ZM957.07 261.625C958.003 261.625 958.73 261.069 959.25 259.957C959.77 258.83 960.03 257.108 960.03 254.793C960.03 252.827 959.863 251.304 959.53 250.222L955.09 260.437C955.57 261.229 956.23 261.625 957.07 261.625Z" fill="url(#paint67_linear_175_1867)"/>
<path d="M957.07 272.841C958.497 272.841 959.577 273.535 960.31 274.921C961.057 276.292 961.43 278.288 961.43 280.908C961.43 283.528 961.057 285.531 960.31 286.918C959.577 288.304 958.497 288.997 957.07 288.997C955.657 288.997 954.577 288.304 953.83 286.918C953.084 285.531 952.71 283.528 952.71 280.908C952.71 278.303 953.084 276.307 953.83 274.921C954.577 273.535 955.657 272.841 957.07 272.841ZM954.13 280.908C954.13 282.766 954.277 284.221 954.57 285.272L959.01 275.149C958.543 274.433 957.897 274.075 957.07 274.075C956.15 274.075 955.43 274.639 954.91 275.766C954.39 276.878 954.13 278.592 954.13 280.908ZM957.07 287.74C958.003 287.74 958.73 287.184 959.25 286.072C959.77 284.945 960.03 283.223 960.03 280.908C960.03 278.943 959.863 277.419 959.53 276.338L955.09 286.552C955.57 287.344 956.23 287.74 957.07 287.74Z" fill="url(#paint68_linear_175_1867)"/>
<path d="M958.27 313.673H961.21V314.884H953.59V313.673H956.99V300.83L953.75 303.047L953.19 302.019L957.19 299.185H958.27V313.673Z" fill="url(#paint69_linear_175_1867)"/>
<path d="M957.07 325.072C958.497 325.072 959.577 325.765 960.31 327.151C961.057 328.522 961.43 330.518 961.43 333.138C961.43 335.758 961.057 337.762 960.31 339.148C959.577 340.534 958.497 341.227 957.07 341.227C955.657 341.227 954.577 340.534 953.83 339.148C953.084 337.762 952.71 335.758 952.71 333.138C952.71 330.533 953.084 328.538 953.83 327.151C954.577 325.765 955.657 325.072 957.07 325.072ZM954.13 333.138C954.13 334.997 954.277 336.452 954.57 337.503L959.01 327.38C958.543 326.664 957.897 326.306 957.07 326.306C956.15 326.306 955.43 326.87 954.91 327.997C954.39 329.109 954.13 330.823 954.13 333.138ZM957.07 339.971C958.003 339.971 958.73 339.415 959.25 338.303C959.77 337.175 960.03 335.454 960.03 333.138C960.03 331.173 959.863 329.65 959.53 328.568L955.09 338.782C955.57 339.575 956.23 339.971 957.07 339.971Z" fill="url(#paint70_linear_175_1867)"/>
<path d="M958.27 365.903H961.21V367.114H953.59V365.903H956.99V353.061L953.75 355.277L953.19 354.249L957.19 351.416H958.27V365.903Z" fill="url(#paint71_linear_175_1867)"/>
<path d="M958.27 392.018H961.21V393.229H953.59V392.018H956.99V379.176L953.75 381.393L953.19 380.364L957.19 377.531H958.27V392.018Z" fill="url(#paint72_linear_175_1867)"/>
<path d="M901.36 90.0349C902.786 90.0349 903.866 90.728 904.599 92.1143C905.346 93.4854 905.719 95.481 905.719 98.1012C905.719 100.721 905.346 102.725 904.599 104.111C903.866 105.497 902.786 106.19 901.36 106.19C899.946 106.19 898.867 105.497 898.12 104.111C897.373 102.725 897 100.721 897 98.1012C897 95.4962 897.373 93.5006 898.12 92.1143C898.867 90.728 899.946 90.0349 901.36 90.0349ZM898.42 98.1012C898.42 99.9598 898.567 101.415 898.86 102.466L903.3 92.3428C902.833 91.6268 902.186 91.2688 901.36 91.2688C900.44 91.2688 899.72 91.8325 899.2 92.9598C898.68 94.0719 898.42 95.7857 898.42 98.1012ZM901.36 104.934C902.293 104.934 903.02 104.378 903.54 103.266C904.06 102.138 904.319 100.417 904.319 98.1012C904.319 96.1361 904.153 94.6127 903.82 93.5311L899.38 103.745C899.86 104.538 900.52 104.934 901.36 104.934Z" fill="url(#paint73_linear_175_1867)"/>
<path d="M901.36 116.15C902.786 116.15 903.866 116.843 904.599 118.23C905.346 119.601 905.719 121.596 905.719 124.216C905.719 126.837 905.346 128.84 904.599 130.226C903.866 131.613 902.786 132.306 901.36 132.306C899.946 132.306 898.867 131.613 898.12 130.226C897.373 128.84 897 126.837 897 124.216C897 121.611 897.373 119.616 898.12 118.23C898.867 116.843 899.946 116.15 901.36 116.15ZM898.42 124.216C898.42 126.075 898.567 127.53 898.86 128.581L903.3 118.458C902.833 117.742 902.186 117.384 901.36 117.384C900.44 117.384 899.72 117.948 899.2 119.075C898.68 120.187 898.42 121.901 898.42 124.216ZM901.36 131.049C902.293 131.049 903.02 130.493 903.54 129.381C904.06 128.253 904.319 126.532 904.319 124.216C904.319 122.251 904.153 120.728 903.82 119.646L899.38 129.861C899.86 130.653 900.52 131.049 901.36 131.049Z" fill="url(#paint74_linear_175_1867)"/>
<path d="M902.56 156.981H905.499V158.192H897.88V156.981H901.28V144.139L898.04 146.356L897.48 145.327L901.48 142.494H902.56V156.981Z" fill="url(#paint75_linear_175_1867)"/>
<path d="M901.36 168.381C902.786 168.381 903.866 169.074 904.599 170.46C905.346 171.831 905.719 173.827 905.719 176.447C905.719 179.067 905.346 181.07 904.599 182.457C903.866 183.843 902.786 184.536 901.36 184.536C899.946 184.536 898.867 183.843 898.12 182.457C897.373 181.07 897 179.067 897 176.447C897 173.842 897.373 171.846 898.12 170.46C898.867 169.074 899.946 168.381 901.36 168.381ZM898.42 176.447C898.42 178.305 898.567 179.76 898.86 180.811L903.3 170.689C902.833 169.973 902.186 169.614 901.36 169.614C900.44 169.614 899.72 170.178 899.2 171.305C898.68 172.418 898.42 174.131 898.42 176.447ZM901.36 183.279C902.293 183.279 903.02 182.723 903.54 181.611C904.06 180.484 904.319 178.762 904.319 176.447C904.319 174.482 904.153 172.958 903.82 171.877L899.38 182.091C899.86 182.883 900.52 183.279 901.36 183.279Z" fill="url(#paint76_linear_175_1867)"/>
<path d="M902.56 209.212H905.499V210.423H897.88V209.212H901.28V196.37L898.04 198.586L897.48 197.558L901.48 194.724H902.56V209.212Z" fill="url(#paint77_linear_175_1867)"/>
<path d="M902.56 235.327H905.499V236.538H897.88V235.327H901.28V222.485L898.04 224.701L897.48 223.673L901.48 220.84H902.56V235.327Z" fill="url(#paint78_linear_175_1867)"/>
<path d="M939.7 52.5204H942.64V53.7315H935.02V52.5204H938.42V39.6782L935.18 41.8947L934.62 40.8664L938.62 38.0329H939.7V52.5204Z" fill="url(#paint79_linear_175_1867)"/>
<path d="M938.5 63.9197C939.927 63.9197 941.006 64.6128 941.74 65.9991C942.486 67.3701 942.86 69.3658 942.86 71.986C942.86 74.6062 942.486 76.6095 941.74 77.9958C941.006 79.382 939.927 80.0752 938.5 80.0752C937.087 80.0752 936.007 79.382 935.26 77.9958C934.514 76.6095 934.14 74.6062 934.14 71.986C934.14 69.381 934.514 67.3854 935.26 65.9991C936.007 64.6128 937.087 63.9197 938.5 63.9197ZM935.56 71.986C935.56 73.8445 935.707 75.2994 936 76.3505L940.44 66.2276C939.973 65.5116 939.327 65.1536 938.5 65.1536C937.58 65.1536 936.86 65.7173 936.34 66.8446C935.82 67.9566 935.56 69.6705 935.56 71.986ZM938.5 78.8184C939.433 78.8184 940.16 78.2624 940.68 77.1503C941.2 76.023 941.46 74.3016 941.46 71.986C941.46 70.0208 941.293 68.4974 940.96 67.4158L936.52 77.6302C937 78.4223 937.66 78.8184 938.5 78.8184Z" fill="url(#paint80_linear_175_1867)"/>
<path d="M939.7 104.751H942.64V105.962H935.02V104.751H938.42V91.9086L935.18 94.1252L934.62 93.0969L938.62 90.2634H939.7V104.751Z" fill="url(#paint81_linear_175_1867)"/>
<path d="M939.7 130.866H942.64V132.077H935.02V130.866H938.42V118.024L935.18 120.24L934.62 119.212L938.62 116.379H939.7V130.866Z" fill="url(#paint82_linear_175_1867)"/>
<path d="M938.5 142.265C939.927 142.265 941.006 142.958 941.74 144.345C942.486 145.716 942.86 147.711 942.86 150.332C942.86 152.952 942.486 154.955 941.74 156.341C941.006 157.728 939.927 158.421 938.5 158.421C937.087 158.421 936.007 157.728 935.26 156.341C934.514 154.955 934.14 152.952 934.14 150.332C934.14 147.727 934.514 145.731 935.26 144.345C936.007 142.958 937.087 142.265 938.5 142.265ZM935.56 150.332C935.56 152.19 935.707 153.645 936 154.696L940.44 144.573C939.973 143.857 939.327 143.499 938.5 143.499C937.58 143.499 936.86 144.063 936.34 145.19C935.82 146.302 935.56 148.016 935.56 150.332ZM938.5 157.164C939.433 157.164 940.16 156.608 940.68 155.496C941.2 154.369 941.46 152.647 941.46 150.332C941.46 148.367 941.293 146.843 940.96 145.762L936.52 155.976C937 156.768 937.66 157.164 938.5 157.164Z" fill="url(#paint83_linear_175_1867)"/>
<path d="M939.7 183.096H942.64V184.308H935.02V183.096H938.42V170.254L935.18 172.471L934.62 171.443L938.62 168.609H939.7V183.096Z" fill="url(#paint84_linear_175_1867)"/>
<path d="M939.7 209.212H942.64V210.423H935.02V209.212H938.42V196.37L935.18 198.586L934.62 197.558L938.62 194.724H939.7V209.212Z" fill="url(#paint85_linear_175_1867)"/>
<path d="M938.5 220.611C939.927 220.611 941.006 221.304 941.74 222.69C942.486 224.061 942.86 226.057 942.86 228.677C942.86 231.298 942.486 233.301 941.74 234.687C941.006 236.073 939.927 236.767 938.5 236.767C937.087 236.767 936.007 236.073 935.26 234.687C934.514 233.301 934.14 231.298 934.14 228.677C934.14 226.072 934.514 224.077 935.26 222.69C936.007 221.304 937.087 220.611 938.5 220.611ZM935.56 228.677C935.56 230.536 935.707 231.991 936 233.042L940.44 222.919C939.973 222.203 939.327 221.845 938.5 221.845C937.58 221.845 936.86 222.409 936.34 223.536C935.82 224.648 935.56 226.362 935.56 228.677ZM938.5 235.51C939.433 235.51 940.16 234.954 940.68 233.842C941.2 232.714 941.46 230.993 941.46 228.677C941.46 226.712 941.293 225.189 940.96 224.107L936.52 234.321C937 235.114 937.66 235.51 938.5 235.51Z" fill="url(#paint86_linear_175_1867)"/>
<path d="M939.7 261.442H942.64V262.653H935.02V261.442H938.42V248.6L935.18 250.817L934.62 249.788L938.62 246.955H939.7V261.442Z" fill="url(#paint87_linear_175_1867)"/>
<path d="M938.5 272.841C939.927 272.841 941.006 273.535 941.74 274.921C942.486 276.292 942.86 278.288 942.86 280.908C942.86 283.528 942.486 285.531 941.74 286.918C941.006 288.304 939.927 288.997 938.5 288.997C937.087 288.997 936.007 288.304 935.26 286.918C934.514 285.531 934.14 283.528 934.14 280.908C934.14 278.303 934.514 276.307 935.26 274.921C936.007 273.535 937.087 272.841 938.5 272.841ZM935.56 280.908C935.56 282.766 935.707 284.221 936 285.272L940.44 275.149C939.973 274.433 939.327 274.075 938.5 274.075C937.58 274.075 936.86 274.639 936.34 275.766C935.82 276.878 935.56 278.592 935.56 280.908ZM938.5 287.74C939.433 287.74 940.16 287.184 940.68 286.072C941.2 284.945 941.46 283.223 941.46 280.908C941.46 278.943 941.293 277.419 940.96 276.338L936.52 286.552C937 287.344 937.66 287.74 938.5 287.74Z" fill="url(#paint88_linear_175_1867)"/>
<path d="M975.64 37.8044C977.067 37.8044 978.147 38.4976 978.88 39.8839C979.627 41.2549 980 43.2505 980 45.8708C980 48.491 979.627 50.4943 978.88 51.8805C978.147 53.2668 977.067 53.96 975.64 53.96C974.227 53.96 973.147 53.2668 972.401 51.8805C971.654 50.4943 971.281 48.491 971.281 45.8708C971.281 43.2658 971.654 41.2701 972.401 39.8839C973.147 38.4976 974.227 37.8044 975.64 37.8044ZM972.7 45.8708C972.7 47.7293 972.847 49.1841 973.14 50.2353L977.58 40.1124C977.114 39.3964 976.467 39.0384 975.64 39.0384C974.72 39.0384 974 39.602 973.48 40.7293C972.96 41.8414 972.7 43.5552 972.7 45.8708ZM975.64 52.7032C976.574 52.7032 977.3 52.1471 977.82 51.0351C978.34 49.9078 978.6 48.1863 978.6 45.8708C978.6 43.9056 978.433 42.3822 978.1 41.3006L973.66 51.5149C974.14 52.3071 974.8 52.7032 975.64 52.7032Z" fill="url(#paint89_linear_175_1867)"/>
<path d="M976.84 78.6356H979.78V79.8467H972.161V78.6356H975.56V65.7934L972.321 68.01L971.761 66.9817L975.76 64.1482H976.84V78.6356Z" fill="url(#paint90_linear_175_1867)"/>
<path d="M976.84 104.751H979.78V105.962H972.161V104.751H975.56V91.9086L972.321 94.1252L971.761 93.0969L975.76 90.2634H976.84V104.751Z" fill="url(#paint91_linear_175_1867)"/>
<path d="M975.64 116.15C977.067 116.15 978.147 116.843 978.88 118.23C979.627 119.601 980 121.596 980 124.216C980 126.837 979.627 128.84 978.88 130.226C978.147 131.613 977.067 132.306 975.64 132.306C974.227 132.306 973.147 131.613 972.401 130.226C971.654 128.84 971.281 126.837 971.281 124.216C971.281 121.611 971.654 119.616 972.401 118.23C973.147 116.843 974.227 116.15 975.64 116.15ZM972.7 124.216C972.7 126.075 972.847 127.53 973.14 128.581L977.58 118.458C977.114 117.742 976.467 117.384 975.64 117.384C974.72 117.384 974 117.948 973.48 119.075C972.96 120.187 972.7 121.901 972.7 124.216ZM975.64 131.049C976.574 131.049 977.3 130.493 977.82 129.381C978.34 128.253 978.6 126.532 978.6 124.216C978.6 122.251 978.433 120.728 978.1 119.646L973.66 129.861C974.14 130.653 974.8 131.049 975.64 131.049Z" fill="url(#paint92_linear_175_1867)"/>
<path d="M975.64 142.265C977.067 142.265 978.147 142.958 978.88 144.345C979.627 145.716 980 147.711 980 150.332C980 152.952 979.627 154.955 978.88 156.341C978.147 157.728 977.067 158.421 975.64 158.421C974.227 158.421 973.147 157.728 972.401 156.341C971.654 154.955 971.281 152.952 971.281 150.332C971.281 147.727 971.654 145.731 972.401 144.345C973.147 142.958 974.227 142.265 975.64 142.265ZM972.7 150.332C972.7 152.19 972.847 153.645 973.14 154.696L977.58 144.573C977.114 143.857 976.467 143.499 975.64 143.499C974.72 143.499 974 144.063 973.48 145.19C972.96 146.302 972.7 148.016 972.7 150.332ZM975.64 157.164C976.574 157.164 977.3 156.608 977.82 155.496C978.34 154.369 978.6 152.647 978.6 150.332C978.6 148.367 978.433 146.843 978.1 145.762L973.66 155.976C974.14 156.768 974.8 157.164 975.64 157.164Z" fill="url(#paint93_linear_175_1867)"/>
</g>
</g>
<defs>
<filter id="filter0_f_175_1867" x="-558.19" y="-716.19" width="2141.38" height="1602.42" filterUnits="userSpaceOnUse" color-interpolation-filters="sRGB">
<feFlood flood-opacity="0" result="BackgroundImageFix"/>
<feBlend mode="normal" in="SourceGraphic" in2="BackgroundImageFix" result="shape"/>
<feGaussianBlur stdDeviation="200.095" result="effect1_foregroundBlur_175_1867"/>
</filter>
<linearGradient id="paint0_linear_175_1867" x1="52.5" y1="355.419" x2="52.5" y2="712.189" gradientUnits="userSpaceOnUse">
<stop stop-color="#F7DD43"/>
<stop offset="1" stop-color="#F7DD43" stop-opacity="0"/>
</linearGradient>
<linearGradient id="paint1_linear_175_1867" x1="52.5" y1="355.419" x2="52.5" y2="712.189" gradientUnits="userSpaceOnUse">
<stop stop-color="#F7DD43"/>
<stop offset="1" stop-color="#F7DD43" stop-opacity="0"/>
</linearGradient>
<linearGradient id="paint2_linear_175_1867" x1="52.5" y1="355.419" x2="52.5" y2="712.189" gradientUnits="userSpaceOnUse">
<stop stop-color="#F7DD43"/>
<stop offset="1" stop-color="#F7DD43" stop-opacity="0"/>
</linearGradient>
<linearGradient id="paint3_linear_175_1867" x1="52.5" y1="355.419" x2="52.5" y2="712.189" gradientUnits="userSpaceOnUse">
<stop stop-color="#F7DD43"/>
<stop offset="1" stop-color="#F7DD43" stop-opacity="0"/>
</linearGradient>
<linearGradient id="paint4_linear_175_1867" x1="52.5" y1="355.419" x2="52.5" y2="712.189" gradientUnits="userSpaceOnUse">
<stop stop-color="#F7DD43"/>
<stop offset="1" stop-color="#F7DD43" stop-opacity="0"/>
</linearGradient>
<linearGradient id="paint5_linear_175_1867" x1="52.5" y1="355.419" x2="52.5" y2="712.189" gradientUnits="userSpaceOnUse">
<stop stop-color="#F7DD43"/>
<stop offset="1" stop-color="#F7DD43" stop-opacity="0"/>
</linearGradient>
<linearGradient id="paint6_linear_175_1867" x1="52.5" y1="355.419" x2="52.5" y2="712.189" gradientUnits="userSpaceOnUse">
<stop stop-color="#F7DD43"/>
<stop offset="1" stop-color="#F7DD43" stop-opacity="0"/>
</linearGradient>
<linearGradient id="paint7_linear_175_1867" x1="52.5" y1="355.419" x2="52.5" y2="712.189" gradientUnits="userSpaceOnUse">
<stop stop-color="#F7DD43"/>
<stop offset="1" stop-color="#F7DD43" stop-opacity="0"/>
</linearGradient>
<linearGradient id="paint8_linear_175_1867" x1="52.5" y1="355.419" x2="52.5" y2="712.189" gradientUnits="userSpaceOnUse">
<stop stop-color="#F7DD43"/>
<stop offset="1" stop-color="#F7DD43" stop-opacity="0"/>
</linearGradient>
<linearGradient id="paint9_linear_175_1867" x1="52.5" y1="355.419" x2="52.5" y2="712.189" gradientUnits="userSpaceOnUse">
<stop stop-color="#F7DD43"/>
<stop offset="1" stop-color="#F7DD43" stop-opacity="0"/>
</linearGradient>
<linearGradient id="paint10_linear_175_1867" x1="52.5" y1="355.419" x2="52.5" y2="712.189" gradientUnits="userSpaceOnUse">
<stop stop-color="#F7DD43"/>
<stop offset="1" stop-color="#F7DD43" stop-opacity="0"/>
</linearGradient>
<linearGradient id="paint11_linear_175_1867" x1="52.5" y1="355.419" x2="52.5" y2="712.189" gradientUnits="userSpaceOnUse">
<stop stop-color="#F7DD43"/>
<stop offset="1" stop-color="#F7DD43" stop-opacity="0"/>
</linearGradient>
<linearGradient id="paint12_linear_175_1867" x1="52.5" y1="355.419" x2="52.5" y2="712.189" gradientUnits="userSpaceOnUse">
<stop stop-color="#F7DD43"/>
<stop offset="1" stop-color="#F7DD43" stop-opacity="0"/>
</linearGradient>
<linearGradient id="paint13_linear_175_1867" x1="52.5" y1="355.419" x2="52.5" y2="712.189" gradientUnits="userSpaceOnUse">
<stop stop-color="#F7DD43"/>
<stop offset="1" stop-color="#F7DD43" stop-opacity="0"/>
</linearGradient>
<linearGradient id="paint14_linear_175_1867" x1="52.5" y1="355.419" x2="52.5" y2="712.189" gradientUnits="userSpaceOnUse">
<stop stop-color="#F7DD43"/>
<stop offset="1" stop-color="#F7DD43" stop-opacity="0"/>
</linearGradient>
<linearGradient id="paint15_linear_175_1867" x1="52.5" y1="355.419" x2="52.5" y2="712.189" gradientUnits="userSpaceOnUse">
<stop stop-color="#F7DD43"/>
<stop offset="1" stop-color="#F7DD43" stop-opacity="0"/>
</linearGradient>
<linearGradient id="paint16_linear_175_1867" x1="52.5" y1="355.419" x2="52.5" y2="712.189" gradientUnits="userSpaceOnUse">
<stop stop-color="#F7DD43"/>
<stop offset="1" stop-color="#F7DD43" stop-opacity="0"/>
</linearGradient>
<linearGradient id="paint17_linear_175_1867" x1="52.5" y1="355.419" x2="52.5" y2="712.189" gradientUnits="userSpaceOnUse">
<stop stop-color="#F7DD43"/>
<stop offset="1" stop-color="#F7DD43" stop-opacity="0"/>
</linearGradient>
<linearGradient id="paint18_linear_175_1867" x1="52.5" y1="355.419" x2="52.5" y2="712.189" gradientUnits="userSpaceOnUse">
<stop stop-color="#F7DD43"/>
<stop offset="1" stop-color="#F7DD43" stop-opacity="0"/>
</linearGradient>
<linearGradient id="paint19_linear_175_1867" x1="52.5" y1="355.419" x2="52.5" y2="712.189" gradientUnits="userSpaceOnUse">
<stop stop-color="#F7DD43"/>
<stop offset="1" stop-color="#F7DD43" stop-opacity="0"/>
</linearGradient>
<linearGradient id="paint20_linear_175_1867" x1="52.5" y1="355.419" x2="52.5" y2="712.189" gradientUnits="userSpaceOnUse">
<stop stop-color="#F7DD43"/>
<stop offset="1" stop-color="#F7DD43" stop-opacity="0"/>
</linearGradient>
<linearGradient id="paint21_linear_175_1867" x1="52.5" y1="355.419" x2="52.5" y2="712.189" gradientUnits="userSpaceOnUse">
<stop stop-color="#F7DD43"/>
<stop offset="1" stop-color="#F7DD43" stop-opacity="0"/>
</linearGradient>
<linearGradient id="paint22_linear_175_1867" x1="52.5" y1="355.419" x2="52.5" y2="712.189" gradientUnits="userSpaceOnUse">
<stop stop-color="#F7DD43"/>
<stop offset="1" stop-color="#F7DD43" stop-opacity="0"/>
</linearGradient>
<linearGradient id="paint23_linear_175_1867" x1="52.5" y1="355.419" x2="52.5" y2="712.189" gradientUnits="userSpaceOnUse">
<stop stop-color="#F7DD43"/>
<stop offset="1" stop-color="#F7DD43" stop-opacity="0"/>
</linearGradient>
<linearGradient id="paint24_linear_175_1867" x1="52.5" y1="355.419" x2="52.5" y2="712.189" gradientUnits="userSpaceOnUse">
<stop stop-color="#F7DD43"/>
<stop offset="1" stop-color="#F7DD43" stop-opacity="0"/>
</linearGradient>
<linearGradient id="paint25_linear_175_1867" x1="52.5" y1="355.419" x2="52.5" y2="712.189" gradientUnits="userSpaceOnUse">
<stop stop-color="#F7DD43"/>
<stop offset="1" stop-color="#F7DD43" stop-opacity="0"/>
</linearGradient>
<linearGradient id="paint26_linear_175_1867" x1="52.5" y1="355.419" x2="52.5" y2="712.189" gradientUnits="userSpaceOnUse">
<stop stop-color="#F7DD43"/>
<stop offset="1" stop-color="#F7DD43" stop-opacity="0"/>
</linearGradient>
<linearGradient id="paint27_linear_175_1867" x1="52.5" y1="355.419" x2="52.5" y2="712.189" gradientUnits="userSpaceOnUse">
<stop stop-color="#F7DD43"/>
<stop offset="1" stop-color="#F7DD43" stop-opacity="0"/>
</linearGradient>
<linearGradient id="paint28_linear_175_1867" x1="52.5" y1="355.419" x2="52.5" y2="712.189" gradientUnits="userSpaceOnUse">
<stop stop-color="#F7DD43"/>
<stop offset="1" stop-color="#F7DD43" stop-opacity="0"/>
</linearGradient>
<linearGradient id="paint29_linear_175_1867" x1="52.5" y1="355.419" x2="52.5" y2="712.189" gradientUnits="userSpaceOnUse">
<stop stop-color="#F7DD43"/>
<stop offset="1" stop-color="#F7DD43" stop-opacity="0"/>
</linearGradient>
<linearGradient id="paint30_linear_175_1867" x1="52.5" y1="355.419" x2="52.5" y2="712.189" gradientUnits="userSpaceOnUse">
<stop stop-color="#F7DD43"/>
<stop offset="1" stop-color="#F7DD43" stop-opacity="0"/>
</linearGradient>
<linearGradient id="paint31_linear_175_1867" x1="52.5" y1="355.419" x2="52.5" y2="712.189" gradientUnits="userSpaceOnUse">
<stop stop-color="#F7DD43"/>
<stop offset="1" stop-color="#F7DD43" stop-opacity="0"/>
</linearGradient>
<linearGradient id="paint32_linear_175_1867" x1="52.5" y1="355.419" x2="52.5" y2="712.189" gradientUnits="userSpaceOnUse">
<stop stop-color="#F7DD43"/>
<stop offset="1" stop-color="#F7DD43" stop-opacity="0"/>
</linearGradient>
<linearGradient id="paint33_linear_175_1867" x1="52.5" y1="355.419" x2="52.5" y2="712.189" gradientUnits="userSpaceOnUse">
<stop stop-color="#F7DD43"/>
<stop offset="1" stop-color="#F7DD43" stop-opacity="0"/>
</linearGradient>
<linearGradient id="paint34_linear_175_1867" x1="52.5" y1="355.419" x2="52.5" y2="712.189" gradientUnits="userSpaceOnUse">
<stop stop-color="#F7DD43"/>
<stop offset="1" stop-color="#F7DD43" stop-opacity="0"/>
</linearGradient>
<linearGradient id="paint35_linear_175_1867" x1="52.5" y1="355.419" x2="52.5" y2="712.189" gradientUnits="userSpaceOnUse">
<stop stop-color="#F7DD43"/>
<stop offset="1" stop-color="#F7DD43" stop-opacity="0"/>
</linearGradient>
<linearGradient id="paint36_linear_175_1867" x1="52.5" y1="355.419" x2="52.5" y2="712.189" gradientUnits="userSpaceOnUse">
<stop stop-color="#F7DD43"/>
<stop offset="1" stop-color="#F7DD43" stop-opacity="0"/>
</linearGradient>
<linearGradient id="paint37_linear_175_1867" x1="52.5" y1="355.419" x2="52.5" y2="712.189" gradientUnits="userSpaceOnUse">
<stop stop-color="#F7DD43"/>
<stop offset="1" stop-color="#F7DD43" stop-opacity="0"/>
</linearGradient>
<linearGradient id="paint38_linear_175_1867" x1="52.5" y1="355.419" x2="52.5" y2="712.189" gradientUnits="userSpaceOnUse">
<stop stop-color="#F7DD43"/>
<stop offset="1" stop-color="#F7DD43" stop-opacity="0"/>
</linearGradient>
<linearGradient id="paint39_linear_175_1867" x1="52.5" y1="355.419" x2="52.5" y2="712.189" gradientUnits="userSpaceOnUse">
<stop stop-color="#F7DD43"/>
<stop offset="1" stop-color="#F7DD43" stop-opacity="0"/>
</linearGradient>
<linearGradient id="paint40_linear_175_1867" x1="52.5" y1="355.419" x2="52.5" y2="712.189" gradientUnits="userSpaceOnUse">
<stop stop-color="#F7DD43"/>
<stop offset="1" stop-color="#F7DD43" stop-opacity="0"/>
</linearGradient>
<linearGradient id="paint41_linear_175_1867" x1="52.5" y1="355.419" x2="52.5" y2="712.189" gradientUnits="userSpaceOnUse">
<stop stop-color="#F7DD43"/>
<stop offset="1" stop-color="#F7DD43" stop-opacity="0"/>
</linearGradient>
<linearGradient id="paint42_linear_175_1867" x1="52.5" y1="355.419" x2="52.5" y2="712.189" gradientUnits="userSpaceOnUse">
<stop stop-color="#F7DD43"/>
<stop offset="1" stop-color="#F7DD43" stop-opacity="0"/>
</linearGradient>
<linearGradient id="paint43_linear_175_1867" x1="52.5" y1="355.419" x2="52.5" y2="712.189" gradientUnits="userSpaceOnUse">
<stop stop-color="#F7DD43"/>
<stop offset="1" stop-color="#F7DD43" stop-opacity="0"/>
</linearGradient>
<linearGradient id="paint44_linear_175_1867" x1="52.5" y1="355.419" x2="52.5" y2="712.189" gradientUnits="userSpaceOnUse">
<stop stop-color="#F7DD43"/>
<stop offset="1" stop-color="#F7DD43" stop-opacity="0"/>
</linearGradient>
<linearGradient id="paint45_linear_175_1867" x1="52.5" y1="355.419" x2="52.5" y2="712.189" gradientUnits="userSpaceOnUse">
<stop stop-color="#F7DD43"/>
<stop offset="1" stop-color="#F7DD43" stop-opacity="0"/>
</linearGradient>
<linearGradient id="paint46_linear_175_1867" x1="52.5" y1="355.419" x2="52.5" y2="712.189" gradientUnits="userSpaceOnUse">
<stop stop-color="#F7DD43"/>
<stop offset="1" stop-color="#F7DD43" stop-opacity="0"/>
</linearGradient>
<linearGradient id="paint47_linear_175_1867" x1="938.5" y1="11.6892" x2="938.5" y2="354.065" gradientUnits="userSpaceOnUse">
<stop stop-color="#F7DD43"/>
<stop offset="1" stop-color="#F7DD43" stop-opacity="0"/>
</linearGradient>
<linearGradient id="paint48_linear_175_1867" x1="938.5" y1="11.6892" x2="938.5" y2="354.065" gradientUnits="userSpaceOnUse">
<stop stop-color="#F7DD43"/>
<stop offset="1" stop-color="#F7DD43" stop-opacity="0"/>
</linearGradient>
<linearGradient id="paint49_linear_175_1867" x1="938.5" y1="11.6892" x2="938.5" y2="354.065" gradientUnits="userSpaceOnUse">
<stop stop-color="#F7DD43"/>
<stop offset="1" stop-color="#F7DD43" stop-opacity="0"/>
</linearGradient>
<linearGradient id="paint50_linear_175_1867" x1="938.5" y1="11.6892" x2="938.5" y2="354.065" gradientUnits="userSpaceOnUse">
<stop stop-color="#F7DD43"/>
<stop offset="1" stop-color="#F7DD43" stop-opacity="0"/>
</linearGradient>
<linearGradient id="paint51_linear_175_1867" x1="938.5" y1="11.6892" x2="938.5" y2="354.065" gradientUnits="userSpaceOnUse">
<stop stop-color="#F7DD43"/>
<stop offset="1" stop-color="#F7DD43" stop-opacity="0"/>
</linearGradient>
<linearGradient id="paint52_linear_175_1867" x1="938.5" y1="11.6892" x2="938.5" y2="354.065" gradientUnits="userSpaceOnUse">
<stop stop-color="#F7DD43"/>
<stop offset="1" stop-color="#F7DD43" stop-opacity="0"/>
</linearGradient>
<linearGradient id="paint53_linear_175_1867" x1="938.5" y1="11.6892" x2="938.5" y2="354.065" gradientUnits="userSpaceOnUse">
<stop stop-color="#F7DD43"/>
<stop offset="1" stop-color="#F7DD43" stop-opacity="0"/>
</linearGradient>
<linearGradient id="paint54_linear_175_1867" x1="938.5" y1="11.6892" x2="938.5" y2="354.065" gradientUnits="userSpaceOnUse">
<stop stop-color="#F7DD43"/>
<stop offset="1" stop-color="#F7DD43" stop-opacity="0"/>
</linearGradient>
<linearGradient id="paint55_linear_175_1867" x1="938.5" y1="11.6892" x2="938.5" y2="354.065" gradientUnits="userSpaceOnUse">
<stop stop-color="#F7DD43"/>
<stop offset="1" stop-color="#F7DD43" stop-opacity="0"/>
</linearGradient>
<linearGradient id="paint56_linear_175_1867" x1="938.5" y1="11.6892" x2="938.5" y2="354.065" gradientUnits="userSpaceOnUse">
<stop stop-color="#F7DD43"/>
<stop offset="1" stop-color="#F7DD43" stop-opacity="0"/>
</linearGradient>
<linearGradient id="paint57_linear_175_1867" x1="938.5" y1="11.6892" x2="938.5" y2="354.065" gradientUnits="userSpaceOnUse">
<stop stop-color="#F7DD43"/>
<stop offset="1" stop-color="#F7DD43" stop-opacity="0"/>
</linearGradient>
<linearGradient id="paint58_linear_175_1867" x1="938.5" y1="11.6892" x2="938.5" y2="354.065" gradientUnits="userSpaceOnUse">
<stop stop-color="#F7DD43"/>
<stop offset="1" stop-color="#F7DD43" stop-opacity="0"/>
</linearGradient>
<linearGradient id="paint59_linear_175_1867" x1="938.5" y1="11.6892" x2="938.5" y2="354.065" gradientUnits="userSpaceOnUse">
<stop stop-color="#F7DD43"/>
<stop offset="1" stop-color="#F7DD43" stop-opacity="0"/>
</linearGradient>
<linearGradient id="paint60_linear_175_1867" x1="938.5" y1="11.6892" x2="938.5" y2="354.065" gradientUnits="userSpaceOnUse">
<stop stop-color="#F7DD43"/>
<stop offset="1" stop-color="#F7DD43" stop-opacity="0"/>
</linearGradient>
<linearGradient id="paint61_linear_175_1867" x1="938.5" y1="11.6892" x2="938.5" y2="354.065" gradientUnits="userSpaceOnUse">
<stop stop-color="#F7DD43"/>
<stop offset="1" stop-color="#F7DD43" stop-opacity="0"/>
</linearGradient>
<linearGradient id="paint62_linear_175_1867" x1="938.5" y1="11.6892" x2="938.5" y2="354.065" gradientUnits="userSpaceOnUse">
<stop stop-color="#F7DD43"/>
<stop offset="1" stop-color="#F7DD43" stop-opacity="0"/>
</linearGradient>
<linearGradient id="paint63_linear_175_1867" x1="938.5" y1="11.6892" x2="938.5" y2="354.065" gradientUnits="userSpaceOnUse">
<stop stop-color="#F7DD43"/>
<stop offset="1" stop-color="#F7DD43" stop-opacity="0"/>
</linearGradient>
<linearGradient id="paint64_linear_175_1867" x1="938.5" y1="11.6892" x2="938.5" y2="354.065" gradientUnits="userSpaceOnUse">
<stop stop-color="#F7DD43"/>
<stop offset="1" stop-color="#F7DD43" stop-opacity="0"/>
</linearGradient>
<linearGradient id="paint65_linear_175_1867" x1="938.5" y1="11.6892" x2="938.5" y2="354.065" gradientUnits="userSpaceOnUse">
<stop stop-color="#F7DD43"/>
<stop offset="1" stop-color="#F7DD43" stop-opacity="0"/>
</linearGradient>
<linearGradient id="paint66_linear_175_1867" x1="938.5" y1="11.6892" x2="938.5" y2="354.065" gradientUnits="userSpaceOnUse">
<stop stop-color="#F7DD43"/>
<stop offset="1" stop-color="#F7DD43" stop-opacity="0"/>
</linearGradient>
<linearGradient id="paint67_linear_175_1867" x1="938.5" y1="11.6892" x2="938.5" y2="354.065" gradientUnits="userSpaceOnUse">
<stop stop-color="#F7DD43"/>
<stop offset="1" stop-color="#F7DD43" stop-opacity="0"/>
</linearGradient>
<linearGradient id="paint68_linear_175_1867" x1="938.5" y1="11.6892" x2="938.5" y2="354.065" gradientUnits="userSpaceOnUse">
<stop stop-color="#F7DD43"/>
<stop offset="1" stop-color="#F7DD43" stop-opacity="0"/>
</linearGradient>
<linearGradient id="paint69_linear_175_1867" x1="938.5" y1="11.6892" x2="938.5" y2="354.065" gradientUnits="userSpaceOnUse">
<stop stop-color="#F7DD43"/>
<stop offset="1" stop-color="#F7DD43" stop-opacity="0"/>
</linearGradient>
<linearGradient id="paint70_linear_175_1867" x1="938.5" y1="11.6892" x2="938.5" y2="354.065" gradientUnits="userSpaceOnUse">
<stop stop-color="#F7DD43"/>
<stop offset="1" stop-color="#F7DD43" stop-opacity="0"/>
</linearGradient>
<linearGradient id="paint71_linear_175_1867" x1="938.5" y1="11.6892" x2="938.5" y2="354.065" gradientUnits="userSpaceOnUse">
<stop stop-color="#F7DD43"/>
<stop offset="1" stop-color="#F7DD43" stop-opacity="0"/>
</linearGradient>
<linearGradient id="paint72_linear_175_1867" x1="938.5" y1="11.6892" x2="938.5" y2="354.065" gradientUnits="userSpaceOnUse">
<stop stop-color="#F7DD43"/>
<stop offset="1" stop-color="#F7DD43" stop-opacity="0"/>
</linearGradient>
<linearGradient id="paint73_linear_175_1867" x1="938.5" y1="11.6892" x2="938.5" y2="354.065" gradientUnits="userSpaceOnUse">
<stop stop-color="#F7DD43"/>
<stop offset="1" stop-color="#F7DD43" stop-opacity="0"/>
</linearGradient>
<linearGradient id="paint74_linear_175_1867" x1="938.5" y1="11.6892" x2="938.5" y2="354.065" gradientUnits="userSpaceOnUse">
<stop stop-color="#F7DD43"/>
<stop offset="1" stop-color="#F7DD43" stop-opacity="0"/>
</linearGradient>
<linearGradient id="paint75_linear_175_1867" x1="938.5" y1="11.6892" x2="938.5" y2="354.065" gradientUnits="userSpaceOnUse">
<stop stop-color="#F7DD43"/>
<stop offset="1" stop-color="#F7DD43" stop-opacity="0"/>
</linearGradient>
<linearGradient id="paint76_linear_175_1867" x1="938.5" y1="11.6892" x2="938.5" y2="354.065" gradientUnits="userSpaceOnUse">
<stop stop-color="#F7DD43"/>
<stop offset="1" stop-color="#F7DD43" stop-opacity="0"/>
</linearGradient>
<linearGradient id="paint77_linear_175_1867" x1="938.5" y1="11.6892" x2="938.5" y2="354.065" gradientUnits="userSpaceOnUse">
<stop stop-color="#F7DD43"/>
<stop offset="1" stop-color="#F7DD43" stop-opacity="0"/>
</linearGradient>
<linearGradient id="paint78_linear_175_1867" x1="938.5" y1="11.6892" x2="938.5" y2="354.065" gradientUnits="userSpaceOnUse">
<stop stop-color="#F7DD43"/>
<stop offset="1" stop-color="#F7DD43" stop-opacity="0"/>
</linearGradient>
<linearGradient id="paint79_linear_175_1867" x1="938.5" y1="11.6892" x2="938.5" y2="354.065" gradientUnits="userSpaceOnUse">
<stop stop-color="#F7DD43"/>
<stop offset="1" stop-color="#F7DD43" stop-opacity="0"/>
</linearGradient>
<linearGradient id="paint80_linear_175_1867" x1="938.5" y1="11.6892" x2="938.5" y2="354.065" gradientUnits="userSpaceOnUse">
<stop stop-color="#F7DD43"/>
<stop offset="1" stop-color="#F7DD43" stop-opacity="0"/>
</linearGradient>
<linearGradient id="paint81_linear_175_1867" x1="938.5" y1="11.6892" x2="938.5" y2="354.065" gradientUnits="userSpaceOnUse">
<stop stop-color="#F7DD43"/>
<stop offset="1" stop-color="#F7DD43" stop-opacity="0"/>
</linearGradient>
<linearGradient id="paint82_linear_175_1867" x1="938.5" y1="11.6892" x2="938.5" y2="354.065" gradientUnits="userSpaceOnUse">
<stop stop-color="#F7DD43"/>
<stop offset="1" stop-color="#F7DD43" stop-opacity="0"/>
</linearGradient>
<linearGradient id="paint83_linear_175_1867" x1="938.5" y1="11.6892" x2="938.5" y2="354.065" gradientUnits="userSpaceOnUse">
<stop stop-color="#F7DD43"/>
<stop offset="1" stop-color="#F7DD43" stop-opacity="0"/>
</linearGradient>
<linearGradient id="paint84_linear_175_1867" x1="938.5" y1="11.6892" x2="938.5" y2="354.065" gradientUnits="userSpaceOnUse">
<stop stop-color="#F7DD43"/>
<stop offset="1" stop-color="#F7DD43" stop-opacity="0"/>
</linearGradient>
<linearGradient id="paint85_linear_175_1867" x1="938.5" y1="11.6892" x2="938.5" y2="354.065" gradientUnits="userSpaceOnUse">
<stop stop-color="#F7DD43"/>
<stop offset="1" stop-color="#F7DD43" stop-opacity="0"/>
</linearGradient>
<linearGradient id="paint86_linear_175_1867" x1="938.5" y1="11.6892" x2="938.5" y2="354.065" gradientUnits="userSpaceOnUse">
<stop stop-color="#F7DD43"/>
<stop offset="1" stop-color="#F7DD43" stop-opacity="0"/>
</linearGradient>
<linearGradient id="paint87_linear_175_1867" x1="938.5" y1="11.6892" x2="938.5" y2="354.065" gradientUnits="userSpaceOnUse">
<stop stop-color="#F7DD43"/>
<stop offset="1" stop-color="#F7DD43" stop-opacity="0"/>
</linearGradient>
<linearGradient id="paint88_linear_175_1867" x1="938.5" y1="11.6892" x2="938.5" y2="354.065" gradientUnits="userSpaceOnUse">
<stop stop-color="#F7DD43"/>
<stop offset="1" stop-color="#F7DD43" stop-opacity="0"/>
</linearGradient>
<linearGradient id="paint89_linear_175_1867" x1="938.5" y1="11.6892" x2="938.5" y2="354.065" gradientUnits="userSpaceOnUse">
<stop stop-color="#F7DD43"/>
<stop offset="1" stop-color="#F7DD43" stop-opacity="0"/>
</linearGradient>
<linearGradient id="paint90_linear_175_1867" x1="938.5" y1="11.6892" x2="938.5" y2="354.065" gradientUnits="userSpaceOnUse">
<stop stop-color="#F7DD43"/>
<stop offset="1" stop-color="#F7DD43" stop-opacity="0"/>
</linearGradient>
<linearGradient id="paint91_linear_175_1867" x1="938.5" y1="11.6892" x2="938.5" y2="354.065" gradientUnits="userSpaceOnUse">
<stop stop-color="#F7DD43"/>
<stop offset="1" stop-color="#F7DD43" stop-opacity="0"/>
</linearGradient>
<linearGradient id="paint92_linear_175_1867" x1="938.5" y1="11.6892" x2="938.5" y2="354.065" gradientUnits="userSpaceOnUse">
<stop stop-color="#F7DD43"/>
<stop offset="1" stop-color="#F7DD43" stop-opacity="0"/>
</linearGradient>
<linearGradient id="paint93_linear_175_1867" x1="938.5" y1="11.6892" x2="938.5" y2="354.065" gradientUnits="userSpaceOnUse">
<stop stop-color="#F7DD43"/>
<stop offset="1" stop-color="#F7DD43" stop-opacity="0"/>
</linearGradient>
<clipPath id="clip0_175_1867">
<rect width="1024" height="753" fill="white"/>
</clipPath>
</defs>
</svg>
